<svg width="249" height="210" xmlns="http://www.w3.org/2000/svg">
 <!-- Created with Method Draw - http://github.com/duopixel/Method-Draw/ -->
 <g>
  <title>Layer 1</title>
  <rect stroke="#000" id="svg_1" height="135" width="166.999998" y="38.05" x="45.5" stroke-width="5.5" fill="#000000"/>
  <rect id="svg_2" height="0" width="2" y="284.05" x="776.5" stroke-width="5.5" stroke="#000" fill="#fff"/>
  <rect id="svg_3" height="6" width="1" y="195.05" x="934.5" stroke-width="5.5" stroke="#000" fill="#fff"/>
  <rect stroke="#000" id="svg_4" height="117.000002" width="147" y="46.05" x="54.5" stroke-opacity="null" stroke-width="0" fill="#ffffff"/>
  <path id="svg_11" d="m179.665853,85.503355c-4.010713,4.556291 -21.282788,10.335315 -23.510496,10.335315l-18.933417,0c-3.142284,0 -7.87459,0.630673 -10.102297,2.076502c0.255914,0.231676 0.511827,0.463352 0.75935,0.699318c1.711685,1.626021 5.714007,3.917037 9.254845,3.917037c1.665537,0 3.033206,-0.493384 4.195306,-1.518764c4.942071,-4.320325 7.509598,-4.826579 8.998932,-4.826579c1.766224,0 3.284925,0.828026 4.178525,2.278145c1.678122,2.685723 0.444702,6.199473 -0.813889,8.953841c-3.01223,6.538406 -12.829246,13.604518 -23.472738,13.604518c-0.008391,0 -0.008391,0 -0.016781,0c-1.485138,0 -2.94091,-0.14158 -4.333751,-0.424739l0,13.947742c0,3.183397 4.333751,10.867311 17.481841,10.867311s16.592436,-15.878373 16.592436,-18.61129l0,-19.357801c9.355533,-5.015352 18.929221,-7.743978 23.510496,-16.71069c4.308579,-8.426135 0.218156,-9.786158 -3.788361,-5.229867zm-29.409096,20.275923c3.339464,-7.289207 -0.222351,-7.289207 -6.460771,-1.823374s-15.375797,0.450481 -18.49291,-2.509821c-3.117112,-2.956012 -6.234225,-5.234157 -11.805592,-5.006772c-5.571367,0.227386 -18.711065,-0.690737 -26.291984,-2.509821c-7.572528,-1.823374 -20.536024,-12.870878 -21.605827,-10.017834c-1.115951,2.960302 0.88521,5.011062 4.900118,10.017834c4.006517,5.015352 21.291179,11.918433 21.291179,11.918433s0,14.814381 0,20.96237c0,6.15657 12.472645,15.487957 18.929221,15.487957s11.360889,-4.556291 11.360889,-7.748269l0,-19.357801c10.693835,5.706089 24.836212,-2.119405 28.175676,-9.412902zm-6.71249,-16.2645c7.316614,0 13.252972,-6.066474 13.252972,-13.548744c0,-7.486561 -5.936358,-13.553035 -13.252972,-13.553035s-13.248777,6.066474 -13.248777,13.553035c0,7.482271 5.932163,13.548744 13.248777,13.548744zm-34.917533,0c7.316614,0 13.248777,-6.066474 13.248777,-13.548744c0,-7.486561 -5.932163,-13.553035 -13.248777,-13.553035c-7.320809,0 -13.252972,6.066474 -13.252972,13.553035c0,7.482271 5.927968,13.548744 13.252972,13.548744z" fill-opacity="null" stroke-opacity="null" stroke-width="5.5" stroke="#000" fill="#000000"/>
 </g>
</svg>