<svg width="727" height="210" xmlns="http://www.w3.org/2000/svg">
 <!-- Created with Method Draw - http://github.com/duopixel/Method-Draw/ -->

 <g>
  <title>background</title>
  <rect fill="none" id="canvas_background" height="402" width="582" y="-1" x="-1"/>
 </g>
 <g>
  <title>Layer 1</title>
  <rect fill="#000000" stroke="#000" stroke-width="5.5" x="45.5" y="38.05" width="632" height="135" id="svg_1"/>
  <rect fill="#fff" stroke="#000" stroke-width="5.5" x="776.5" y="284.05" width="2" height="0" id="svg_2"/>
  <rect fill="#fff" stroke="#000" stroke-width="5.5" x="934.5" y="195.05" width="1" height="6" id="svg_3"/>
  <rect fill="#ffffff" stroke-width="0" stroke-opacity="null" x="54.5" y="46.05" width="147" height="117.000002" id="svg_4" stroke="#000"/>
  <text fill="#ffffff" stroke-width="0" stroke-opacity="null" x="276.707585" y="85.696478" id="svg_6" font-size="3" font-family="'Trebuchet MS', Gadget, sans-serif" text-anchor="start" xml:space="preserve" transform="matrix(15.821052551269531,0,0,10.853493440197663,-4152.305240631104,-833.8516014047995) " stroke="#000">Gaming Community</text>
  <path fill="#000000" stroke="#000" stroke-width="5.5" stroke-opacity="null" fill-opacity="null" d="m179.66585,85.50335c-4.01071,4.5563 -21.28279,10.33532 -23.51049,10.33532l-18.93342,0c-3.14228,0 -7.87459,0.63067 -10.1023,2.0765c0.25592,0.23168 0.51183,0.46335 0.75935,0.69932c1.71169,1.62602 5.71401,3.91704 9.25485,3.91704c1.66554,0 3.0332,-0.49339 4.1953,-1.51877c4.94208,-4.32032 7.5096,-4.82658 8.99894,-4.82658c1.76622,0 3.28492,0.82803 4.17852,2.27815c1.67812,2.68572 0.4447,6.19947 -0.81389,8.95384c-3.01223,6.53841 -12.82924,13.60452 -23.47274,13.60452c-0.00839,0 -0.00839,0 -0.01678,0c-1.48513,0 -2.94091,-0.14158 -4.33375,-0.42474l0,13.94774c0,3.1834 4.33375,10.86731 17.48184,10.86731s16.59244,-15.87837 16.59244,-18.61129l0,-19.3578c9.35553,-5.01535 18.92922,-7.74398 23.5105,-16.71069c4.30857,-8.42613 0.21815,-9.78616 -3.78837,-5.22987zm-29.40909,20.27593c3.33946,-7.28921 -0.22235,-7.28921 -6.46077,-1.82338s-15.3758,0.45049 -18.49291,-2.50982c-3.11712,-2.95601 -6.23423,-5.23415 -11.8056,-5.00677c-5.57136,0.22739 -18.71106,-0.69074 -26.29198,-2.50982c-7.57253,-1.82337 -20.53602,-12.87088 -21.60583,-10.01783c-1.11595,2.9603 0.88521,5.01106 4.90012,10.01783c4.00652,5.01535 21.29118,11.91843 21.29118,11.91843s0,14.81438 0,20.96237c0,6.15657 12.47265,15.48796 18.92922,15.48796s11.36089,-4.55629 11.36089,-7.74827l0,-19.3578c10.69383,5.70609 24.83621,-2.11941 28.17568,-9.4129zm-6.71249,-16.2645c7.31661,0 13.25297,-6.06648 13.25297,-13.54875c0,-7.48656 -5.93636,-13.55303 -13.25297,-13.55303s-13.24878,6.06647 -13.24878,13.55303c0,7.48228 5.93216,13.54875 13.24878,13.54875zm-34.91754,0c7.31662,0 13.24878,-6.06648 13.24878,-13.54875c0,-7.48656 -5.93216,-13.55303 -13.24878,-13.55303c-7.3208,0 -13.25297,6.06647 -13.25297,13.55303c0,7.48228 5.92797,13.54875 13.25297,13.54875z" id="svg_11"/>
  <text fill="#ffffff" stroke-width="0" stroke-opacity="null" x="279.994344" y="90.119017" id="svg_5" font-size="3" font-family="'Trebuchet MS', Gadget, sans-serif" text-anchor="start" xml:space="preserve" transform="matrix(15.821052551269531,0,0,10.853493440197663,-4152.305240631104,-833.8516014047995) " stroke="#000">Administration</text>
 </g>
</svg>